<?xml version="1.0" encoding="UTF-8" standalone="no"?><!DOCTYPE svg PUBLIC "-//W3C//DTD SVG 1.1//EN" "http://www.w3.org/Graphics/SVG/1.1/DTD/svg11.dtd"><svg width="100%" height="100%" viewBox="0 0 32 20" version="1.1" xmlns="http://www.w3.org/2000/svg" xmlns:xlink="http://www.w3.org/1999/xlink" xml:space="preserve" xmlns:serif="http://www.serif.com/" style="fill-rule:evenodd;clip-rule:evenodd;stroke-linejoin:round;stroke-miterlimit:2;"><rect id="Artboard1" x="0" y="0" width="32" height="20" style="fill:none;"/><path d="M4.5,0l-4.5,0l0,20l4.5,0l0,-2.5l-2,0l0,-15l2,0l0,-2.5Z" style="fill:#10b981;fill-opacity:0.28;fill-rule:nonzero;"/><path d="M27.5,0l4.5,0l0,20l-4.5,0l0,-2.5l2,0l0,-15l-2,0l0,-2.5Z" style="fill:#10b981;fill-opacity:0.28;fill-rule:nonzero;"/><g><path d="M26.414,4.03l-2.247,-2.206c-0.581,-0.579 -1.534,-0.579 -2.115,0l-8.678,8.571l-3.435,-3.333c-0.582,-0.577 -1.535,-0.575 -2.114,0.005l-2.247,2.247c-0.58,0.581 -0.58,1.536 0,2.117l6.705,6.741c0.281,0.281 0.662,0.439 1.059,0.439c0.397,0 0.779,-0.158 1.059,-0.439l12.017,-12.019c0.281,-0.281 0.438,-0.662 0.438,-1.059c0,-0.399 -0.16,-0.782 -0.443,-1.064Zm-13.075,13.085l-6.705,-6.741l2.247,-2.247c0.003,0.002 0.005,0.005 0.007,0.007l3.965,3.847c0.289,0.283 0.758,0.283 1.048,0l9.216,-9.097l2.241,2.21l-12.019,12.021Z" style="fill:#10b981;fill-rule:nonzero;"/></g></svg>